#!OML:ASF H:\Punching\Project 1\Capture day 1\Session 1\female.ASF
:FULLY-SPECIFIED
:DEGREES
1028
root -1.95941 14.0233 5.41284 17.7099 -21.3777 -7.76146
lowerback 6.6213 -3.6511 -8.17435
upperback -2.56768 -5.78344 -2.48858
thorax -5.87918 -2.58927 2.59238
lowerneck -0.681969 12.0632 26.5843
upperneck 27.6129 14.7303 -3.3009
head 11.6718 8.93836 -3.66029
rclavicle -6.24184e-014 2.22639e-014
rhumerus 9.06194 30.4112 -83.6254
rradius 134.098
rwrist -37.9486
rhand -13.6968 -3.77487
rfingers 7.12502
rthumb 12.4215 -33.3858
lclavicle -6.24184e-014 2.22639e-014
lhumerus 30.45 -4.86898 63.3656
lradius 53.0594
lwrist -3.50155
lhand -12.6084 30.0552
lfingers 7.12502
lthumb 13.4707 59.5996
rfemur -59.1224 13.5968 23.7759
rtibia 55.5595
rfoot -12.9293 11.6182
rtoes 1.57061
lfemur 0.439788 4.86538 -2.25311
ltibia 44.2777
lfoot -26.0625 11.1638
ltoes -37.6145
1029
root -1.95745 13.9995 5.39506 17.4655 -21.3823 -8.02621
lowerback 7.23712 -4.06614 -8.10057
upperback -2.42926 -6.37082 -2.28753
thorax -6.00865 -2.87167 2.86228
lowerneck -0.385028 12.2757 26.4594
upperneck 27.3289 15.2805 -3.8813
head 11.6196 9.1136 -3.79191
rclavicle -6.2816e-014 -3.81667e-014
rhumerus 9.79916 30.7646 -83.0977
rradius 133.955
rwrist -37.7122
rhand -13.6121 -3.81416
rfingers 7.12502
rthumb 12.5031 -33.4201
lclavicle -6.2816e-014 -3.81667e-014
lhumerus 32.0444 -1.1251 64.591
lradius 46.4309
lwrist -7.48796
lhand -12.6049 28.7707
lfingers 7.12502
lthumb 13.474 58.3149
rfemur -58.8434 13.3687 24.2893
rtibia 55.6641
rfoot -12.9491 11.9478
rtoes 1.85162
lfemur 0.134469 5.3642 -1.49264
ltibia 45.5186
lfoot -26.0113 9.85394
ltoes -37.9227
1030
root -1.95334 13.976 5.38068 17.2836 -21.3255 -8.28483
lowerback 7.78461 -4.41795 -7.92903
upperback -2.30808 -6.85507 -2.06853
thorax -6.13283 -3.10657 3.08912
lowerneck -0.154987 12.4241 26.226
upperneck 26.9916 15.737 -4.48455
head 11.5357 9.23563 -3.93091
rclavicle 1.59028e-015 -9.54166e-015
rhumerus 10.5882 31.0453 -82.5173
rradius 133.845
rwrist -37.5208
rhand -13.583 -3.88021
rfingers 7.12502
rthumb 12.5311 -33.4844
lclavicle 1.59028e-015 -9.54166e-015
lhumerus 33.1494 2.50971 66.0465
lradius 41.7537
lwrist -10.6726
lhand -12.7541 27.3491
lfingers 7.12502
lthumb 13.3302 56.9027
rfemur -58.6403 13.0893 24.7748
rtibia 55.7964
rfoot -12.9988 12.2418
rtoes 2.04384
lfemur -0.183741 5.82094 -0.737018
ltibia 46.6304
lfoot -25.9838 8.54682
ltoes -38.2761
1031
root -1.94804 13.9612 5.37164 17.1695 -21.2494 -8.50579
lowerback 8.2307 -4.708 -7.68868
upperback -2.19152 -7.2375 -1.85355
thorax -6.22152 -3.29601 3.25954
lowerneck -0.0429613 12.5378 25.9248
upperneck 26.6304 16.1202 -5.10384
head 11.4486 9.31775 -4.07156
rclavicle 2.42517e-014 -3.49861e-014
rhumerus 11.4122 31.297 -81.9334
rradius 133.779
rwrist -37.3291
rhand -13.6097 -3.9521
rfingers 7.12502
rthumb 12.5054 -33.5579
lclavicle 2.42517e-014 -3.49861e-014
lhumerus 33.7222 5.55538 67.2181
lradius 39.2325
lwrist -12.3528
lhand -13.0077 26.0387
lfingers 7.12502
lthumb 13.0858 55.6082
rfemur -58.4959 12.8001 25.1882
rtibia 55.9458
rfoot -13.1019 12.4897
rtoes 2.14072
lfemur -0.50408 6.25511 -0.0549529
ltibia 47.5822
lfoot -25.9604 7.29341
ltoes -38.661
1032
root -1.93801 13.938 5.36589 17.1266 -21.1857 -8.64946
lowerback 8.56413 -4.92286 -7.40977
upperback -2.09876 -7.5056 -1.66108
thorax -6.2909 -3.43213 3.36668
lowerneck -0.0449 12.6134 25.5758
upperneck 26.2755 16.4203 -5.71824
head 11.3678 9.3597 -4.20989
rclavicle -9.10434e-014 1.27222e-014
rhumerus 12.2312 31.5097 -81.3758
rradius 133.741
rwrist -37.1464
rhand -13.6898 -4.03156
rfingers 7.12502
rthumb 12.4282 -33.6421
lclavicle -9.10434e-014 1.27222e-014
lhumerus 33.6701 7.59315 67.7831
lradius 38.8516
lwrist -12.1068
lhand -13.2938 25.0446
lfingers 7.12502
lthumb 12.81 54.6316
rfemur -58.5455 12.5205 25.4659
rtibia 56.1904
rfoot -13.2226 12.6988
rtoes 2.14436
lfemur -0.854206 6.6852 0.496491
ltibia 48.4297
lfoot -25.9731 6.121
ltoes -39.0438
